# xmcd
#
# Track frame offsets: 
#        150
#        17005
#        32002
#        48565
#        63940
#        75115
#        88402
#        105397
#        116940
#        126125
#        143922
#
# Disc length: 2096 seconds
#
# Revision: 7
# Processed by: cddbd v1.5.2PL0 Copyright (c) Steve Scherf et al.
# Submitted via: ExactAudioCopy v0.99pb5
#
DISCID=8c082e0b
DTITLE=Benny Andersson - November 1989
DYEAR=1989
DGENRE=Folk
TTITLE0=Skallgång
TTITLE1=Machopolska
TTITLE2=Vals efter Efraim Andersson
TTITLE3=Sekelskiftesidyll
TTITLE4=Dans på vindbryggan
TTITLE5=Stjuls
TTITLE6=Tröstevisa
TTITLE7=Målarskolan
TTITLE8=Novell #1
TTITLE9=The conducator
TTITLE10=Stockholm by night
EXTD=
EXTT0=
EXTT1=
EXTT2=
EXTT3=
EXTT4=
EXTT5=
EXTT6=
EXTT7=
EXTT8=
EXTT9=
EXTT10=
PLAYORDER=
